#!OML:ASF H:\Pregnant\Project 1\Capture day 1\Session 1\femalepreg.ASF
:FULLY-SPECIFIED
:DEGREES
296
root 2.67664 15.525 32.337 172.683 -85.0801 -152.196
lowerback -22.6721 0.157711 -0.560195
upperback -6.34655 -0.214883 0.736781
thorax 5.69744 -0.316918 1.03702
lowerneck -19.7276 -0.247915 1.07244
upperneck 26.6251 -2.19631 3.53182
head 12.0892 -0.549391 0.761108
rclavicle 7.21216e-015 1.09332e-014
rhumerus -39.103 4.2158 -85.6249
rradius 30.94
rwrist -9.185
rhand -20.1632 -20.2648
rfingers 7.12502
rthumb 6.18223 -50.1546
lclavicle 7.21216e-015 1.09332e-014
lhumerus -40.3384 -17.6437 93.5113
lradius 33.32
lwrist 38.5667
lhand -32.1219 1.29325
lfingers 7.12502
lthumb -5.3664 31.2053
rfemur -34.7146 19.7956 21.2144
rtibia 33.7775
rfoot -15.2689 -16.7795
rtoes 3.3076
lfemur -25.6567 -15.2939 -20.0234
ltibia 14.8461
lfoot -6.33784 14.0651
ltoes -3.84237
297
root 2.67428 15.5268 32.3347 172.639 -85.0645 -152.177
lowerback -22.6895 0.181956 -0.504861
upperback -6.34168 -0.194395 0.719185
thorax 5.71119 -0.306786 0.99187
lowerneck -19.7727 -0.250114 1.00052
upperneck 26.6481 -2.20195 3.6115
head 12.1093 -0.547839 0.802564
rclavicle 4.96962e-016 8.15017e-015
rhumerus -39.1855 4.16039 -85.5542
rradius 30.6604
rwrist -9.00062
rhand -20.3801 -20.3372
rfingers 7.12502
rthumb 5.9729 -50.233
lclavicle 4.96962e-016 8.15017e-015
lhumerus -40.325 -17.4916 93.4102
lradius 33.2308
lwrist 38.6381
lhand -32.2503 1.32653
lfingers 7.12502
lthumb -5.49039 31.2354
rfemur -34.6174 19.7485 21.2525
rtibia 33.6847
rfoot -15.2977 -16.684
rtoes 3.45534
lfemur -25.5681 -15.3279 -20.0053
ltibia 14.7609
lfoot -6.30874 14.1214
ltoes -3.81332
298
root 2.67152 15.5285 32.3321 172.592 -85.0501 -152.152
lowerback -22.7132 0.209686 -0.454033
upperback -6.33729 -0.168529 0.702008
thorax 5.72755 -0.294106 0.951209
lowerneck -19.8019 -0.250855 0.982773
upperneck 26.6638 -2.20755 3.64087
head 12.1221 -0.54765 0.815867
rclavicle 2.37299e-015 1.78906e-015
rhumerus -39.292 4.13719 -85.5009
rradius 30.4107
rwrist -8.87677
rhand -20.4566 -20.3784
rfingers 7.12502
rthumb 5.89901 -50.2762
lclavicle 2.37299e-015 1.78906e-015
lhumerus -40.3258 -17.371 93.3296
lradius 33.158
lwrist 38.7025
lhand -32.3652 1.35206
lfingers 7.12502
lthumb -5.60132 31.258
rfemur -34.523 19.726 21.2844
rtibia 33.593
rfoot -15.3174 -16.6212
rtoes 3.56825
lfemur -25.4792 -15.3575 -19.9886
ltibia 14.6719
lfoot -6.27825 14.1737
ltoes -3.79463
299
root 2.66846 15.5301 32.3296 172.552 -85.0397 -152.132
lowerback -22.7414 0.241307 -0.405966
upperback -6.33301 -0.136728 0.680764
thorax 5.74596 -0.278566 0.90935
lowerneck -19.8166 -0.250523 1.01644
upperneck 26.6715 -2.21638 3.63141
head 12.128 -0.549064 0.805232
rclavicle -1.21818e-014 9.14409e-015
rhumerus -39.4185 4.14033 -85.467
rradius 30.189
rwrist -8.80743
rhand -20.466 -20.3985
rfingers 7.12502
rthumb 5.88995 -50.2967
lclavicle -1.21818e-014 9.14409e-015
lhumerus -40.3405 -17.2818 93.2621
lradius 33.1
lwrist 38.757
lhand -32.447 1.37534
lfingers 7.12502
lthumb -5.68035 31.2792
rfemur -34.4303 19.7209 21.3088
rtibia 33.5014
rfoot -15.3339 -16.5812
rtoes 3.67575
lfemur -25.393 -15.3836 -19.9758
ltibia 14.5853
lfoot -6.24776 14.2187
ltoes -3.79253
300
root 2.6651 15.5317 32.327 172.489 -85.0331 -152.084
lowerback -22.7769 0.27349 -0.361381
upperback -6.32963 -0.103841 0.662292
thorax 5.76722 -0.26259 0.87279
lowerneck -19.825 -0.250025 1.06718
upperneck 26.6777 -2.22558 3.60571
head 12.1315 -0.551157 0.785506
rclavicle -1.01877e-015 4.77083e-015
rhumerus -39.558 4.16623 -85.4379
rradius 29.9926
rwrist -8.76062
rhand -20.4959 -20.4301
rfingers 7.12502
rthumb 5.86106 -50.329
lclavicle -1.01877e-015 4.77083e-015
lhumerus -40.3659 -17.2076 93.2116
lradius 33.0536
lwrist 38.7932
lhand -32.5067 1.39359
lfingers 7.12502
lthumb -5.73791 31.2959
rfemur -34.3415 19.7246 21.3293
rtibia 33.4093
rfoot -15.3527 -16.5528
rtoes 3.79861
lfemur -25.3149 -15.3895 -19.9679
ltibia 14.5049
lfoot -6.22222 14.2391
ltoes -3.79976
301
root 2.66161 15.5332 32.3245 172.355 -85.0297 -151.963
lowerback -22.8156 0.306249 -0.31558
upperback -6.32771 -0.0708339 0.645944
thorax 5.78857 -0.246605 0.837888
lowerneck -19.8374 -0.25205 1.10311
upperneck 26.6892 -2.23766 3.59219
head 12.1383 -0.554356 0.772448
rclavicle 5.35476e-015 -5.36719e-015
rhumerus -39.699 4.17058 -85.4018
rradius 29.7965
rwrist -8.7151
rhand -20.4593 -20.4473
rfingers 7.12502
rthumb 5.8964 -50.3452
lclavicle 5.35476e-015 -5.36719e-015
lhumerus -40.4035 -17.1462 93.1731
lradius 33.0179
lwrist 38.8119
lhand -32.54 1.40268
lfingers 7.12502
lthumb -5.77011 31.3041
rfemur -34.2552 19.7423 21.3504
rtibia 33.3172
rfoot -15.3687 -16.5448
rtoes 3.91994
lfemur -25.2437 -15.383 -19.9584
ltibia 14.4298
lfoot -6.19503 14.2435
ltoes -3.83407
302
root 2.65805 15.5346 32.3221 172.159 -85.0323 -151.774
lowerback -22.8588 0.334608 -0.271673
upperback -6.32856 -0.0440961 0.637596
thorax 5.80938 -0.233796 0.811039
lowerneck -19.8544 -0.257198 1.09021
upperneck 26.7077 -2.24893 3.61332
head 12.1498 -0.55752 0.780899
rclavicle -5.21189e-015 8.54774e-015
rhumerus -39.8342 4.15357 -85.3424
rradius 29.5955
rwrist -8.63364
rhand -20.4858 -20.477
rfingers 7.12502
rthumb 5.87082 -50.3757
lclavicle -5.21189e-015 8.54774e-015
lhumerus -40.4543 -17.0931 93.156
lradius 32.9958
lwrist 38.826
lhand -32.5751 1.40219
lfingers 7.12502
lthumb -5.804 31.3027
rfemur -34.1738 19.7494 21.3755
rtibia 33.2244
rfoot -15.3812 -16.5351
rtoes 4.03354
lfemur -25.1855 -15.3634 -19.9485
ltibia 14.3644
lfoot -6.16958 14.2277
ltoes -3.89414
303
root 2.65425 15.5359 32.3197 171.962 -85.0436 -151.58
lowerback -22.9095 0.351698 -0.240818
upperback -6.33162 -0.0303644 0.641016
thorax 5.83178 -0.227514 0.800864
lowerneck -19.8736 -0.259956 1.0392
upperneck 26.7321 -2.24977 3.65261
head 12.1643 -0.557443 0.804402
rclavicle 5.71506e-015 2.18663e-015
rhumerus -39.958 4.09851 -85.2491
rradius 29.3745
rwrist -8.5092
rhand -20.4321 -20.4811
rfingers 7.12502
rthumb 5.92268 -50.3783
lclavicle 5.71506e-015 2.18663e-015
lhumerus -40.5188 -17.0268 93.154
lradius 32.986
lwrist 38.8256
lhand -32.5829 1.3994
lfingers 7.12502
lthumb -5.81154 31.2997
rfemur -34.0976 19.7657 21.3933
rtibia 33.1322
rfoot -15.3887 -16.5459
rtoes 4.12856
lfemur -25.1384 -15.3194 -19.9481
ltibia 14.3087
lfoot -6.15204 14.1777
ltoes -3.9393
304
root 2.65027 15.5372 32.3173 171.703 -85.0605 -151.318
lowerback -22.9672 0.362835 -0.213781
upperback -6.33707 -0.0245538 0.652832
thorax 5.85523 -0.225242 0.79981
lowerneck -19.8918 -0.259862 0.970408
upperneck 26.7591 -2.24161 3.69557
head 12.1797 -0.554675 0.833809
rclavicle 6.98852e-015 7.95139e-016
rhumerus -40.0797 4.02575 -85.1398
rradius 29.15
rwrist -8.37652
rhand -20.2844 -20.4635
rfingers 7.12502
rthumb 6.06528 -50.3567
lclavicle 6.98852e-015 7.95139e-016
lhumerus -40.5995 -16.9734 93.1725
lradius 32.9915
lwrist 38.8307
lhand -32.5854 1.3959
lfingers 7.12502
lthumb -5.81396 31.2961
rfemur -34.0273 19.7915 21.4105
rtibia 33.0414
rfoot -15.3889 -16.5776
rtoes 4.19032
lfemur -25.102 -15.2601 -19.9475
ltibia 14.2609
lfoot -6.13875 14.1073
ltoes -3.98565
305
root 2.64604 15.5384 32.3151 171.42 -85.0829 -151.024
lowerback -23.0342 0.367546 -0.190154
upperback -6.34532 -0.0274512 0.672648
thorax 5.88047 -0.227405 0.806992
lowerneck -19.9046 -0.255359 0.891051
upperneck 26.786 -2.22268 3.73656
head 12.1937 -0.548535 0.866039
rclavicle -1.01877e-015 -2.38542e-015
rhumerus -40.1984 3.95301 -85.0143
rradius 28.9237
rwrist -8.2241
rhand -20.1689 -20.4525
rfingers 7.12502
rthumb 6.17677 -50.3424
lclavicle -1.01877e-015 -2.38542e-015
lhumerus -40.6951 -16.9233 93.2089
lradius 33.0082
lwrist 38.8326
lhand -32.566 1.40383
lfingers 7.12502
lthumb -5.79521 31.3046
rfemur -33.9651 19.8026 21.4288
rtibia 32.9541
rfoot -15.387 -16.6031
rtoes 4.22364
lfemur -25.077 -15.1945 -19.9483
ltibia 14.2196
lfoot -6.12978 14.0227
ltoes -4.02679
306
root 2.64155 15.5395 32.3131 171.113 -85.1088 -150.699
lowerback -23.1111 0.374063 -0.162967
upperback -6.35629 -0.0291377 0.690384
thorax 5.90776 -0.229139 0.81023
lowerneck -19.9111 -0.249639 0.839462
upperneck 26.8154 -2.20534 3.7568
head 12.207 -0.543153 0.88548
rclavicle -1.52816e-015 -4.47266e-015
rhumerus -40.3288 3.89736 -84.9041
rradius 28.7191
rwrist -8.11593
rhand -19.9762 -20.4262
rfingers 7.12502
rthumb 6.36281 -50.3107
lclavicle -1.52816e-015 -4.47266e-015
lhumerus -40.8037 -16.8987 93.2591
lradius 33.0346
lwrist 38.8351
lhand -32.5361 1.40972
lfingers 7.12502
lthumb -5.76638 31.3113
rfemur -33.9131 19.8197 21.4424
rtibia 32.8697
rfoot -15.3832 -16.6389
rtoes 4.23118
lfemur -25.0658 -15.1278 -19.9471
ltibia 14.1875
lfoot -6.12679 13.9304
ltoes -4.05691
